# xmcd
#
# Track frame offsets:
#	150
#	11737
#	21443
#	32288
#	45163
#	56189
#	72971
#	85989
#	101350
#	114627
#	128746
#	145234
#	160218
#	169854
#	180261
#	194125
#	205564
#	218063
#	231637
#	243872
#
# Disc length: 3430 seconds
#
# Revision: 0
# Processed by: cddbd v1.5.2PL0 Copyright (c) Steve Scherf et al.
# Submitted via: dBpowerAMP V4.0
#
DISCID=120d6414
DTITLE=diverse - Von Cowboys und Indianern
DYEAR=2012
DGENRE=Schlager
TTITLE0=Gus Backus - Brauner B‰r und weisse Taube
TTITLE1=James Brothers - Ein Haus in Tennessee
TTITLE2=Gerhard Wendland - Bei uns in Laremie
TTITLE3=Ilja Glusgal - Mein roter Bruder wohnt in Arizona
TTITLE4=Goldy - Von den blauen Bergen kommen wir
TTITLE5=Bruce Low - Tabak und Rum
TTITLE6=Vico Torriani - Der Cowboy hat immer ein M‰dchen
TTITLE7=Kilima Hawaiians - Ein Pferd kehrt heim
TTITLE8=Leo Heppe - Die Pr‰rie, Rosemarie, Gin und Whisky
TTITLE9=Paul Kuhn - Einsamer Cowbay
TTITLE10=Bruce Low - Sag, warum willst Du von mir gehen
TTITLE11=Nilsen Brothers - Tom Dooly
TTITLE12=Caterina Valente - Rosalie, muﬂﬂt nicht weinen
TTITLE13=Ralf Paulsen - Zwei Freunde zogen in die Welt
TTITLE14=Hans Albers - Das gibt es nur in Texas
TTITLE15=Lolita - Die Sterne der Pr‰rie
TTITLE16=Peter Alexander - Kleines Haus aud der Sierra Nevada
TTITLE17=Die 3 Nickels - Der alte Schimmel
TTITLE18=Hazy Osterwald Sextett - John Flack aus Texas
TTITLE19=Leila Negra - Banjo-Benny
EXTD=Eine musikalische Reise durch den wilden Westen CD1\ndiverse Interpreten
EXTT0=
EXTT1=
EXTT2=
EXTT3=
EXTT4=
EXTT5=
EXTT6=
EXTT7=
EXTT8=
EXTT9=
EXTT10=
EXTT11=
EXTT12=
EXTT13=
EXTT14=
EXTT15=
EXTT16=
EXTT17=
EXTT18=
EXTT19=
PLAYORDER=
